<svg width="21" height="22" viewBox="0 0 21 22" fill="none" xmlns="http://www.w3.org/2000/svg">
<path d="M8.9827 0.462141C9.29661 0.165361 9.71222 0 10.1442 0C10.5762 0 10.9918 0.165361 11.3057 0.462141L19.4955 8.20387C20.0027 8.68234 20.2884 9.35016 20.2884 10.0467V19.4639C20.2884 20.1366 20.0212 20.7816 19.5456 21.2572C19.07 21.7328 18.425 22 17.7524 22H14.371C14.0378 22 13.7079 21.9343 13.4001 21.8068C13.0923 21.6792 12.8126 21.4923 12.5771 21.2566C12.3416 21.0209 12.1548 20.7412 12.0275 20.4333C11.9001 20.1254 11.8347 19.7954 11.8349 19.4623V15.2355C11.8349 15.0113 11.7459 14.7963 11.5873 14.6377C11.4288 14.4792 11.2138 14.3901 10.9896 14.3901H9.29886C9.07466 14.3901 8.85964 14.4792 8.70111 14.6377C8.54258 14.7963 8.45351 15.0113 8.45351 15.2355V19.4623C8.45351 20.1349 8.18632 20.7799 7.71072 21.2555C7.23512 21.7311 6.59006 21.9983 5.91746 21.9983H2.53605C1.86345 21.9983 1.2184 21.7311 0.742793 21.2555C0.267191 20.7799 0 20.1349 0 19.4623V10.045C0 9.34847 0.287419 8.68065 0.79463 8.20218L8.9827 0.45876V0.462141ZM10.1442 1.68959L1.95445 9.43301C1.87131 9.51183 1.80506 9.60673 1.75972 9.71194C1.71438 9.81715 1.6909 9.93048 1.6907 10.045V19.4623C1.6907 19.6865 1.77977 19.9015 1.9383 20.06C2.09683 20.2185 2.31185 20.3076 2.53605 20.3076H5.91746C6.14166 20.3076 6.35668 20.2185 6.51521 20.06C6.67375 19.9015 6.76281 19.6865 6.76281 19.4623V15.2355C6.76281 14.5629 7.03 13.9178 7.5056 13.4422C7.9812 12.9666 8.62626 12.6994 9.29886 12.6994H10.9896C11.6622 12.6994 12.3072 12.9666 12.7828 13.4422C13.2584 13.9178 13.5256 14.5629 13.5256 15.2355V19.4623C13.5256 19.6865 13.6147 19.9015 13.7732 20.06C13.9318 20.2185 14.1468 20.3076 14.371 20.3076H17.7524C17.9766 20.3076 18.1916 20.2185 18.3501 20.06C18.5087 19.9015 18.5977 19.6865 18.5977 19.4623V10.045C18.5978 9.93019 18.5744 9.81654 18.529 9.71102C18.4837 9.6055 18.4173 9.51033 18.334 9.43132L10.1442 1.68959Z" fill="#D5D5D5"/>
</svg>
