<svg width="37" height="36" viewBox="0 0 37 36" fill="none" xmlns="http://www.w3.org/2000/svg">
<ellipse opacity="0.15" cx="18.0539" cy="18" rx="18.0539" ry="18" fill="#0DF7B8" fill-opacity="0.6"/>
<path d="M18 7C11.928 7 7 11.928 7 18C7 24.072 11.928 29 18 29C24.072 29 29 24.072 29 18C29 11.928 24.072 7 18 7ZM12.577 24.908C13.05 23.918 15.932 22.95 18 22.95C20.068 22.95 22.961 23.918 23.423 24.908C21.927 26.096 20.046 26.8 18 26.8C15.954 26.8 14.073 26.096 12.577 24.908ZM24.996 23.313C23.423 21.399 19.606 20.75 18 20.75C16.394 20.75 12.577 21.399 11.004 23.313C9.83542 21.7882 9.20144 19.9211 9.2 18C9.2 13.149 13.149 9.2 18 9.2C22.851 9.2 26.8 13.149 26.8 18C26.8 20.002 26.118 21.839 24.996 23.313ZM18 11.4C15.866 11.4 14.15 13.116 14.15 15.25C14.15 17.384 15.866 19.1 18 19.1C20.134 19.1 21.85 17.384 21.85 15.25C21.85 13.116 20.134 11.4 18 11.4ZM18 16.9C17.087 16.9 16.35 16.163 16.35 15.25C16.35 14.337 17.087 13.6 18 13.6C18.913 13.6 19.65 14.337 19.65 15.25C19.65 16.163 18.913 16.9 18 16.9Z" fill="#00D770"/>
</svg>
