<svg width="37" height="36" viewBox="0 0 37 36" fill="none" xmlns="http://www.w3.org/2000/svg">
<ellipse opacity="0.15" cx="18.0539" cy="18" rx="18.0539" ry="18" fill="#0DF7B8" fill-opacity="0.6"/>
<path d="M26.5714 10.85H9.42857C9.00748 10.85 8.60521 11.0257 8.3098 11.3359C8.01462 11.6458 7.85 12.0647 7.85 12.5V24.5C7.85 24.9353 8.01462 25.3542 8.3098 25.6641C8.60521 25.9743 9.00748 26.15 9.42857 26.15H26.5714C26.9925 26.15 27.3948 25.9743 27.6902 25.6641C27.9854 25.3542 28.15 24.9353 28.15 24.5V12.5C28.15 12.0647 27.9854 11.6458 27.6902 11.3359C27.3948 11.0257 26.9925 10.85 26.5714 10.85ZM18 17.3996L11.4617 12.65H24.5383L18 17.3996ZM9.57857 24.35V13.4769L17.5045 19.2362C17.6493 19.3417 17.8222 19.3988 18 19.3988C18.1778 19.3988 18.3507 19.3417 18.4955 19.2362L26.4214 13.4769V24.35H9.57857Z" fill="#00D770" stroke="#00D770" stroke-width="0.3"/>
</svg>
