<svg width="22" height="23" viewBox="0 0 22 23" fill="none" xmlns="http://www.w3.org/2000/svg">
<path d="M16.9305 10.4737C17.5421 16.1316 19.9474 17.8421 19.9474 17.8421H1C1 17.8421 4.15789 15.5968 4.15789 7.73684C4.15789 5.95053 4.82316 4.23684 6.00737 2.97368C7.19263 1.71053 8.8 1 10.4737 1C10.8284 1 11.1811 1.03158 11.5263 1.09474" stroke="#50EA50" stroke-width="1.5" stroke-linecap="round" stroke-linejoin="round"/>
<path d="M17.8425 7.31579C18.68 7.31579 19.4832 6.98308 20.0754 6.39086C20.6677 5.79864 21.0004 4.99542 21.0004 4.15789C21.0004 3.32037 20.6677 2.51715 20.0754 1.92493C19.4832 1.33271 18.68 1 17.8425 1C17.0049 1 16.2017 1.33271 15.6095 1.92493C15.0173 2.51715 14.6846 3.32037 14.6846 4.15789C14.6846 4.99542 15.0173 5.79864 15.6095 6.39086C16.2017 6.98308 17.0049 7.31579 17.8425 7.31579Z" stroke="#50EA50" stroke-width="1.5" stroke-linecap="round" stroke-linejoin="round"/>
<path d="M12.2944 21C12.1096 21.3193 11.844 21.5844 11.5244 21.7687C11.2048 21.9529 10.8423 22.0499 10.4734 22.0499C10.1045 22.0499 9.74199 21.9529 9.42237 21.7687C9.10275 21.5844 8.83719 21.3193 8.65234 21" stroke="#50EA50" stroke-width="1.5" stroke-linecap="round" stroke-linejoin="round"/>
</svg>
