<svg width="37" height="36" viewBox="0 0 37 36" fill="none" xmlns="http://www.w3.org/2000/svg">
<ellipse opacity="0.15" cx="18.0539" cy="18" rx="18.0539" ry="18" fill="#0DF7B8" fill-opacity="0.6"/>
<path d="M21.125 8.65H13.25C12.7593 8.65 12.2888 8.84491 11.9419 9.19185C11.5949 9.53879 11.4 10.0093 11.4 10.5V24.5C11.4 24.9907 11.5949 25.4612 11.9419 25.8081C12.2888 26.1551 12.7593 26.35 13.25 26.35H21.125C21.6157 26.35 22.0862 26.1551 22.4331 25.8081C22.7801 25.4612 22.975 24.9907 22.975 24.5V23.625C22.975 23.3664 22.8723 23.1184 22.6894 22.9356C22.5066 22.7527 22.2586 22.65 22 22.65C21.7414 22.65 21.4934 22.7527 21.3106 22.9356C21.1277 23.1184 21.025 23.3664 21.025 23.625V24.4H13.35V10.6H21.025V11.375C21.025 11.6336 21.1277 11.8816 21.3106 12.0644C21.4934 12.2473 21.7414 12.35 22 12.35C22.2586 12.35 22.5066 12.2473 22.6894 12.0644C22.8723 11.8816 22.975 11.6336 22.975 11.375V10.5C22.975 10.0093 22.7801 9.53879 22.4331 9.19185C22.0862 8.84491 21.6157 8.65 21.125 8.65Z" fill="#00D770" stroke="#00D770" stroke-width="0.2"/>
<path d="M22.6249 21.3289L22.6249 21.3289C23.0052 21.7092 23.6198 21.7092 24.0001 21.3289L27.1396 18.1894L27.1396 18.1894C27.3224 18.0066 27.4251 17.7586 27.4251 17.5001C27.4251 17.2416 27.3224 16.9936 27.1396 16.8108L27.1396 16.8108L24.0001 13.6713L24.0002 13.6712L23.9964 13.6678C23.8111 13.5003 23.5684 13.4104 23.3187 13.4167C23.0689 13.423 22.8311 13.525 22.6544 13.7017C22.4778 13.8783 22.3757 14.1161 22.3694 14.3659C22.3631 14.6157 22.453 14.8583 22.6206 15.0437L22.6205 15.0437L22.6239 15.0472L24.0956 16.5251H16.75C16.4914 16.5251 16.2434 16.6278 16.0606 16.8107C15.8777 16.9935 15.775 17.2415 15.775 17.5001C15.775 17.7587 15.8777 18.0067 16.0606 18.1895C16.2434 18.3724 16.4914 18.4751 16.75 18.4751H24.0956L22.6239 19.953C22.4419 20.1358 22.3398 20.3832 22.3399 20.6412C22.3401 20.8991 22.4426 21.1464 22.6249 21.3289Z" fill="#00D770" stroke="#00D770" stroke-width="0.2"/>
</svg>
