<svg width="12" height="18" viewBox="0 0 12 18" fill="none" xmlns="http://www.w3.org/2000/svg">
<path d="M5.97993 0C7.6388 0 9.05686 0.58194 10.2341 1.74582C11.4114 2.9097 12 4.32107 12 5.97993C12 6.80936 11.7926 7.76589 11.3779 8.8495C10.9632 9.93311 10.4615 10.9365 9.87291 11.8595C9.28428 12.7826 8.69565 13.6522 8.10702 14.4682C7.51839 15.2843 7.02341 15.9331 6.62207 16.4147C6.27062 16.7881 5.68574 16.7911 5.35699 16.3976C5.35062 16.39 5.34422 16.3823 5.33779 16.3746C5.07023 16.0535 4.59532 15.4314 3.91304 14.5084C3.23077 13.5853 2.62207 12.689 2.08696 11.8194C1.55184 10.9498 1.07023 9.96655 0.64214 8.86957C0.214047 7.77257 0 6.80936 0 5.97993C0 4.32107 0.58194 2.9097 1.74582 1.74582C2.9097 0.58194 4.32107 0 5.97993 0ZM5.97993 8.10702C6.56856 8.10702 7.07692 7.89967 7.50502 7.48495C7.93311 7.07023 8.14716 6.56856 8.14716 5.97993C8.14716 5.3913 7.93311 4.88963 7.50502 4.47492C7.07692 4.0602 6.56856 3.85284 5.97993 3.85284C5.3913 3.85284 4.88963 4.0602 4.47492 4.47492C4.0602 4.88963 3.85284 5.3913 3.85284 5.97993C3.85284 6.56856 4.0602 7.07023 4.47492 7.48495C4.88963 7.89967 5.3913 8.10702 5.97993 8.10702Z" fill="#50EA50"/>
</svg>
