<svg width="37" height="36" viewBox="0 0 37 36" fill="none" xmlns="http://www.w3.org/2000/svg">
<ellipse opacity="0.15" cx="18.0539" cy="18" rx="18.0539" ry="18" fill="#0DF7B8" fill-opacity="0.6"/>
<path d="M19.011 19.72V19.3897C19.6443 19.3808 20.3193 19.2021 20.8728 18.7792C21.4439 18.3429 21.8736 17.6555 21.9987 16.6594C22.1445 15.5781 21.8316 14.5542 21.1595 13.8002C20.6505 13.2294 19.6875 12.57 17.9784 12.57C16.5124 12.57 15.6009 13.1128 15.0589 13.775C14.5226 14.4304 14.358 15.1903 14.358 15.62C14.358 16.1433 14.7867 16.57 15.3104 16.57C15.8341 16.57 16.2628 16.1433 16.2628 15.62C16.2628 15.5769 16.275 15.2902 16.487 15.017C16.6933 14.7514 17.1112 14.47 17.9784 14.47C18.798 14.47 19.371 14.6842 19.7128 15.0609L19.7128 15.0609L19.7138 15.062C20.1489 15.5319 20.1344 16.1742 20.0969 16.4172L20.0968 16.4172L20.0963 16.4214C20.0486 16.8019 19.9321 17.0638 19.7557 17.2313C19.5811 17.397 19.327 17.49 18.9613 17.49C18.2224 17.49 17.7487 17.693 17.4629 18.0125C17.1798 18.329 17.1062 18.7321 17.1062 19.0801V19.72C17.1062 20.2433 17.5349 20.67 18.0586 20.67C18.5823 20.67 19.011 20.2433 19.011 19.72ZM17.9984 21.0501C17.7019 21.0501 17.4 21.1632 17.1876 21.3966C16.9835 21.6015 16.8454 21.8973 16.8454 22.2001C16.8454 22.496 16.9591 22.7973 17.1932 23.009C17.3987 23.2125 17.6952 23.35 17.9984 23.35C18.2949 23.35 18.5968 23.2369 18.8092 23.0035C19.0133 22.7986 19.1514 22.5028 19.1514 22.2001C19.1514 21.9054 19.0388 21.6056 18.8069 21.394C18.6162 21.184 18.3167 21.0501 17.9984 21.0501ZM18.0586 27.35C23.2362 27.35 27.4361 23.1633 27.4361 18C27.4361 12.8368 23.2362 8.65005 18.0586 8.65005C12.881 8.65005 8.68105 12.8368 8.68105 18C8.68105 23.1633 12.881 27.35 18.0586 27.35ZM18.0586 10.55C22.1888 10.55 25.5314 13.8833 25.5314 18C25.5314 22.1168 22.1888 25.4501 18.0586 25.4501C13.9284 25.4501 10.5858 22.1168 10.5858 18C10.5858 13.8833 13.9284 10.55 18.0586 10.55Z" fill="#00D770" stroke="#00D770" stroke-width="0.3"/>
</svg>
