<svg width="22" height="22" viewBox="0 0 22 22" fill="none" xmlns="http://www.w3.org/2000/svg">
<path d="M11 0C17.0748 0 22 4.92525 22 11C22 17.0748 17.0748 22 11 22C4.92525 22 0 17.0748 0 11C0 4.92525 4.92525 0 11 0ZM11 1.52808C5.77683 1.52808 1.52808 5.77683 1.52808 11C1.52808 16.2232 5.77683 20.4719 11 20.4719C16.2232 20.4719 20.4719 16.2232 20.4719 11C20.4719 5.77683 16.2232 1.52808 11 1.52808ZM10.3125 4.58333C10.4786 4.58334 10.6391 4.64351 10.7644 4.7527C10.8896 4.8619 10.971 5.01274 10.9936 5.17733L11 5.27083V11H14.8958C15.07 11.0001 15.2377 11.0662 15.365 11.1851C15.4923 11.3041 15.5697 11.4669 15.5815 11.6406C15.5934 11.8144 15.5389 11.9862 15.4289 12.1214C15.319 12.2565 15.1619 12.3448 14.9893 12.3686L14.8958 12.375H10.3125C10.1464 12.375 9.98585 12.3148 9.86065 12.2056C9.73544 12.0964 9.65401 11.9456 9.63142 11.781L9.625 11.6875V5.27083C9.625 5.0885 9.69743 4.91363 9.82636 4.7847C9.9553 4.65577 10.1302 4.58333 10.3125 4.58333Z" fill="#D5D5D5"/>
</svg>
