<svg width="24" height="25" viewBox="0 0 24 25" fill="none" xmlns="http://www.w3.org/2000/svg">
<path d="M11.9883 7.8127C10.7451 7.8127 9.55278 8.30657 8.67368 9.18567C7.79458 10.0648 7.30071 11.2571 7.30071 12.5003C7.30071 13.7435 7.79458 14.9359 8.67368 15.815C9.55278 16.6941 10.7451 17.1879 11.9883 17.1879C13.2316 17.1879 14.4239 16.6941 15.303 15.815C16.1821 14.9359 16.6759 13.7435 16.6759 12.5003C16.6759 11.2571 16.1821 10.0648 15.303 9.18567C14.4239 8.30657 13.2316 7.8127 11.9883 7.8127ZM8.86325 12.5003C8.86325 11.6715 9.19249 10.8766 9.77856 10.2905C10.3646 9.70448 11.1595 9.37523 11.9883 9.37523C12.8171 9.37523 13.612 9.70448 14.1981 10.2905C14.7842 10.8766 15.1134 11.6715 15.1134 12.5003C15.1134 13.3291 14.7842 14.124 14.1981 14.7101C13.612 15.2961 12.8171 15.6254 11.9883 15.6254C11.1595 15.6254 10.3646 15.2961 9.77856 14.7101C9.19249 14.124 8.86325 13.3291 8.86325 12.5003ZM9.172 24.6681C10.0964 24.8887 11.0427 25 11.9927 25C12.9407 24.999 13.8852 24.887 14.8071 24.6662C15.0495 24.6079 15.268 24.4762 15.4328 24.2892C15.5977 24.1022 15.7009 23.869 15.7284 23.6212L15.9397 21.7018C15.9754 21.3585 16.1324 21.0393 16.3825 20.8016C16.6327 20.5638 16.9595 20.4231 17.3041 20.4049C17.5332 20.395 17.7616 20.4377 17.9716 20.5299L19.726 21.2993C19.8786 21.3679 20.0437 21.4039 20.211 21.4049C20.3782 21.406 20.5439 21.3722 20.6973 21.3055C20.8517 21.2399 20.9898 21.1424 21.1036 21.0193C22.3936 19.6288 23.3566 17.9677 23.9224 16.1573C23.9964 15.9171 23.9941 15.6599 23.9158 15.4211C23.8374 15.1823 23.6868 14.9737 23.4849 14.8241L21.9261 13.6741C21.7404 13.5392 21.5893 13.3624 21.4851 13.1579C21.3809 12.9535 21.3266 12.7273 21.3266 12.4978C21.3266 12.2683 21.3809 12.0421 21.4851 11.8377C21.5893 11.6333 21.7404 11.4564 21.9261 11.3215L23.4799 10.174C23.6825 10.0242 23.8334 9.81511 23.9118 9.57567C23.9902 9.33622 23.9922 9.07832 23.9174 8.83772C23.3514 7.0271 22.3872 5.36621 21.0954 3.97697C20.9243 3.79404 20.7006 3.66874 20.4552 3.61836C20.2098 3.56798 19.9548 3.59501 19.7254 3.69572L17.9716 4.46824C17.7903 4.55011 17.5928 4.59324 17.3928 4.59324C17.0328 4.59253 16.6858 4.45895 16.4182 4.21812C16.1506 3.97729 15.9813 3.64615 15.9428 3.28821L15.7303 1.37566C15.703 1.12475 15.5979 0.888653 15.4298 0.700385C15.2617 0.512116 15.039 0.381091 14.7928 0.325633C13.8753 0.12039 12.939 0.0112566 11.999 0C11.0527 0.0109209 10.1102 0.119838 9.18638 0.325008C8.94035 0.380186 8.71772 0.510882 8.54962 0.698815C8.38152 0.886749 8.27636 1.12252 8.24886 1.37316L8.03635 3.28696C7.99626 3.64547 7.82535 3.97661 7.55634 4.21698C7.28196 4.45011 6.9357 4.58261 6.57569 4.59199C6.37756 4.59199 6.18068 4.55074 5.9988 4.47074L4.24876 3.69822C4.01862 3.5966 3.76254 3.56921 3.51611 3.61984C3.26969 3.67047 3.04516 3.79661 2.87372 3.98072C1.58372 5.37026 0.620638 7.03057 0.0549009 8.84022C-0.0198346 9.08072 -0.0178674 9.33853 0.0605298 9.57786C0.138927 9.8172 0.289867 10.0262 0.492412 10.1759L2.04745 11.3234C2.32504 11.5289 2.5212 11.8257 2.60135 12.1617C2.6815 12.4976 2.64051 12.851 2.48559 13.1597C2.3824 13.3643 2.23253 13.5418 2.04808 13.6778L0.491787 14.8279C0.289543 14.9774 0.138788 15.186 0.0604005 15.425C-0.0179868 15.664 -0.0201269 15.9214 0.054276 16.1617C0.618992 17.9731 1.58216 19.635 2.8731 21.0255C3.04369 21.2095 3.26739 21.3357 3.51306 21.3865C3.75873 21.4374 4.01415 21.4104 4.24376 21.3093L6.00505 20.5361C6.18693 20.4561 6.38318 20.4149 6.58194 20.4149H6.58694C6.9456 20.4154 7.29156 20.5477 7.55895 20.7867C7.82633 21.0258 7.99648 21.3548 8.03697 21.7112L8.24823 23.6218C8.27583 23.8699 8.37929 24.1035 8.5445 24.2906C8.70971 24.4777 8.92862 24.6093 9.17138 24.6675L9.172 24.6681ZM14.2121 23.2025C12.7496 23.515 11.2371 23.515 9.77452 23.2025L9.58451 21.5387C9.5019 20.8004 9.15041 20.1184 8.59709 19.6227C8.04376 19.127 7.32732 18.8523 6.58444 18.8511H6.57819C6.16387 18.8494 5.75379 18.9346 5.37441 19.1011L3.84562 19.7717C2.85388 18.6532 2.09719 17.3466 1.62057 15.9298L2.97372 14.9297C3.35517 14.6486 3.66523 14.2819 3.87892 13.8589C4.0926 13.436 4.20393 12.9688 4.20393 12.495C4.20393 12.0212 4.0926 11.554 3.87892 11.1311C3.66523 10.7081 3.35517 10.3414 2.97372 10.0603L1.62119 9.06023C2.09875 7.64496 2.8556 6.33997 3.84687 5.22263L5.36691 5.89265C5.74692 6.0614 6.15818 6.14765 6.57381 6.14703H6.58006C7.32471 6.14548 8.04274 5.8699 8.59721 5.37284C9.15168 4.87578 9.50379 4.19202 9.58639 3.45196L9.77389 1.78942C10.5071 1.64249 11.2524 1.56382 12.0002 1.55441C12.7421 1.56379 13.4815 1.64192 14.209 1.78879L14.3965 3.45134C14.4769 4.19124 14.8274 4.87547 15.381 5.37291C15.9346 5.87034 16.6523 6.14599 17.3966 6.14703C17.8164 6.15695 18.2328 6.06922 18.6129 5.89077L20.1317 5.22138C21.1235 6.33862 21.8806 7.6439 22.358 9.0596L21.0098 10.0553C20.6258 10.3352 20.3133 10.7019 20.0979 11.1255C19.8824 11.5491 19.7701 12.0176 19.7701 12.4928C19.7701 12.968 19.8824 13.4366 20.0979 13.8602C20.3133 14.2838 20.6258 14.6505 21.0098 14.9304L22.363 15.9304C21.8852 17.3454 21.1286 18.6503 20.1379 19.768L18.6129 19.0992C18.1787 18.9066 17.7052 18.8194 17.2309 18.8447C16.7566 18.8699 16.295 19.007 15.8837 19.2447C15.4725 19.4824 15.1233 19.8139 14.8646 20.2122C14.6059 20.6106 14.4451 21.0644 14.3953 21.5368L14.2121 23.2025Z" fill="black"/>
</svg>
