<svg width="30" height="30" viewBox="0 0 30 30" fill="none" xmlns="http://www.w3.org/2000/svg">
<rect x="1" y="1" width="28" height="28" rx="14" fill="#50EA50" stroke="white" stroke-width="2"/>
<path d="M18.7501 11.25C18.3689 11.25 18.0189 11.0312 17.8439 10.6938L17.3939 9.7875C17.1064 9.21875 16.3564 8.75 15.7189 8.75H14.2876C13.6439 8.75 12.8939 9.21875 12.6064 9.7875L12.1564 10.6938C11.9814 11.0312 11.6314 11.25 11.2501 11.25C9.89385 11.25 8.81885 12.3937 8.90635 13.7437L9.23135 18.9062C9.30635 20.1938 10.0001 21.25 11.7251 21.25H18.2751C20.0001 21.25 20.6876 20.1938 20.7689 18.9062L21.0939 13.7437C21.1814 12.3937 20.1064 11.25 18.7501 11.25ZM14.0626 12.0312H15.9376C16.1939 12.0312 16.4064 12.2438 16.4064 12.5C16.4064 12.7562 16.1939 12.9688 15.9376 12.9688H14.0626C13.8064 12.9688 13.5939 12.7562 13.5939 12.5C13.5939 12.2438 13.8064 12.0312 14.0626 12.0312ZM15.0001 18.825C13.8376 18.825 12.8876 17.8812 12.8876 16.7125C12.8876 15.5437 13.8314 14.6 15.0001 14.6C16.1689 14.6 17.1126 15.5437 17.1126 16.7125C17.1126 17.8812 16.1626 18.825 15.0001 18.825Z" fill="white"/>
</svg>
