<svg width="50" height="50" viewBox="0 0 50 50" fill="none" xmlns="http://www.w3.org/2000/svg">
<circle cx="25" cy="25" r="25" fill="#EA5050"/>
<path d="M34.8544 15.6666C34.187 15.0069 33.3095 14.6018 32.3745 14.5219C31.4395 14.442 30.506 14.6922 29.7363 15.2291C32.2105 16.2592 34.2316 18.1448 35.4308 20.5416C35.8936 19.7815 36.0884 18.8883 35.9839 18.0046C35.8794 17.1209 35.4817 16.2977 34.8544 15.6666Z" fill="white"/>
<path d="M20.9304 15.3819C20.1639 14.7731 19.2011 14.466 18.2237 14.5185C17.2463 14.5709 16.3218 14.9793 15.6249 15.6666C14.9337 16.3624 14.5243 17.2893 14.4756 18.2688C14.4269 19.2483 14.7423 20.2113 15.361 20.9722C16.4753 18.493 18.4555 16.5054 20.9304 15.3819Z" fill="white"/>
<path d="M25.5 15.7778C23.5805 15.7818 21.7051 16.3539 20.1101 17.422C18.5152 18.4901 17.2722 20.0065 16.5377 21.78C15.8032 23.5534 15.6102 25.5046 15.9829 27.3876C16.3555 29.2706 17.2773 31.0012 18.6319 32.3612L16.8611 34.132C16.7968 34.1977 16.7461 34.2753 16.7118 34.3606C16.6775 34.4459 16.6604 34.5371 16.6614 34.6289C16.6623 34.7208 16.6814 34.8116 16.7174 34.8962C16.7535 34.9807 16.8059 35.0573 16.8715 35.1216C16.9372 35.1859 17.0149 35.2366 17.1001 35.2709C17.1854 35.3051 17.2766 35.3223 17.3685 35.3213C17.4604 35.3203 17.5512 35.3013 17.6357 35.2652C17.7202 35.2292 17.7968 35.1768 17.8611 35.1112L19.7083 33.2639C21.3976 34.5422 23.4605 35.2294 25.5788 35.2193C27.6972 35.2093 29.7535 34.5026 31.4306 33.2084L33.3333 35.1112C33.4662 35.2249 33.6371 35.2844 33.8118 35.2776C33.9866 35.2709 34.1524 35.1984 34.2761 35.0747C34.3998 34.9511 34.4722 34.7853 34.479 34.6105C34.4857 34.4357 34.4263 34.2648 34.3125 34.132L32.4444 32.2917C33.78 30.9237 34.6826 29.1922 35.0393 27.3139C35.396 25.4355 35.191 23.4937 34.4499 21.7313C33.7087 19.9689 32.4644 18.4641 30.8725 17.4052C29.2807 16.3463 27.4119 15.7802 25.5 15.7778ZM30.6875 27.882C30.6079 28.0474 30.4661 28.1746 30.293 28.2358C30.12 28.2969 29.9297 28.2871 29.7639 28.2084L24.8056 25.8056V19.7292C24.8056 19.545 24.8787 19.3684 25.0089 19.2382C25.1392 19.1079 25.3158 19.0348 25.5 19.0348C25.6842 19.0348 25.8608 19.1079 25.991 19.2382C26.1213 19.3684 26.1944 19.545 26.1944 19.7292V24.9376L30.3611 26.9584C30.4442 26.9965 30.519 27.0507 30.5811 27.1178C30.6433 27.1849 30.6915 27.2637 30.7231 27.3495C30.7548 27.4353 30.7691 27.5265 30.7654 27.6179C30.7616 27.7093 30.7399 27.799 30.7014 27.882H30.6875Z" fill="white"/>
</svg>
