<svg width="50" height="50" viewBox="0 0 50 50" fill="none" xmlns="http://www.w3.org/2000/svg">
<circle cx="25" cy="25" r="25" fill="#FDCD24"/>
<path d="M20.002 15.6245C20.002 15.4588 19.9361 15.2998 19.8189 15.1826C19.7017 15.0654 19.5427 14.9995 19.377 14.9995C19.2112 14.9995 19.0522 15.0654 18.935 15.1826C18.8178 15.2998 18.752 15.4588 18.752 15.6245V16.2495H17.502C16.8389 16.2495 16.203 16.5129 15.7342 16.9817C15.2653 17.4506 15.002 18.0865 15.002 18.7495V19.9995H35.002V18.7495C35.002 18.0865 34.7386 17.4506 34.2697 16.9817C33.8009 16.5129 33.165 16.2495 32.502 16.2495H31.252V15.6245C31.252 15.4588 31.1861 15.2998 31.0689 15.1826C30.9517 15.0654 30.7927 14.9995 30.627 14.9995C30.4612 14.9995 30.3022 15.0654 30.185 15.1826C30.0678 15.2998 30.002 15.4588 30.002 15.6245V16.2495H20.002V15.6245ZM35.002 32.4995V21.2495H15.002V32.4995C15.002 33.1626 15.2653 33.7984 15.7342 34.2673C16.203 34.7361 16.8389 34.9995 17.502 34.9995H32.502C33.165 34.9995 33.8009 34.7361 34.2697 34.2673C34.7386 33.7984 35.002 33.1626 35.002 32.4995ZM26.877 23.7495H28.127C28.2927 23.7495 28.4517 23.8154 28.5689 23.9326C28.6861 24.0498 28.752 24.2088 28.752 24.3745V25.6245C28.752 25.7903 28.6861 25.9492 28.5689 26.0665C28.4517 26.1837 28.2927 26.2495 28.127 26.2495H26.877C26.7112 26.2495 26.5522 26.1837 26.435 26.0665C26.3178 25.9492 26.252 25.7903 26.252 25.6245V24.3745C26.252 24.2088 26.3178 24.0498 26.435 23.9326C26.5522 23.8154 26.7112 23.7495 26.877 23.7495ZM30.627 23.7495H31.877C32.0427 23.7495 32.2017 23.8154 32.3189 23.9326C32.4361 24.0498 32.502 24.2088 32.502 24.3745V25.6245C32.502 25.7903 32.4361 25.9492 32.3189 26.0665C32.2017 26.1837 32.0427 26.2495 31.877 26.2495H30.627C30.4612 26.2495 30.3022 26.1837 30.185 26.0665C30.0678 25.9492 30.002 25.7903 30.002 25.6245V24.3745C30.002 24.2088 30.0678 24.0498 30.185 23.9326C30.3022 23.8154 30.4612 23.7495 30.627 23.7495ZM17.502 28.1245C17.502 27.9588 17.5678 27.7998 17.685 27.6826C17.8022 27.5654 17.9612 27.4995 18.127 27.4995H19.377C19.5427 27.4995 19.7017 27.5654 19.8189 27.6826C19.9361 27.7998 20.002 27.9588 20.002 28.1245V29.3745C20.002 29.5403 19.9361 29.6992 19.8189 29.8165C19.7017 29.9337 19.5427 29.9995 19.377 29.9995H18.127C17.9612 29.9995 17.8022 29.9337 17.685 29.8165C17.5678 29.6992 17.502 29.5403 17.502 29.3745V28.1245ZM21.877 27.4995H23.127C23.2927 27.4995 23.4517 27.5654 23.5689 27.6826C23.6861 27.7998 23.752 27.9588 23.752 28.1245V29.3745C23.752 29.5403 23.6861 29.6992 23.5689 29.8165C23.4517 29.9337 23.2927 29.9995 23.127 29.9995H21.877C21.7112 29.9995 21.5522 29.9337 21.435 29.8165C21.3178 29.6992 21.252 29.5403 21.252 29.3745V28.1245C21.252 27.9588 21.3178 27.7998 21.435 27.6826C21.5522 27.5654 21.7112 27.4995 21.877 27.4995Z" fill="white"/>
</svg>
