<svg width="50" height="50" viewBox="0 0 50 50" fill="none" xmlns="http://www.w3.org/2000/svg">
<circle cx="25" cy="25" r="25" fill="#FD5824"/>
<path d="M26.7523 27.8074C27.5335 27.8074 28.2323 27.2024 28.2323 26.3324C28.2323 25.2924 27.5735 24.7949 26.7823 24.7949C26.0498 24.7949 25.3223 25.2787 25.3223 26.3074C25.3223 27.3287 26.001 27.8074 26.7523 27.8074Z" fill="white"/>
<path d="M19.375 15C19.5408 15 19.6997 15.0658 19.8169 15.1831C19.9342 15.3003 20 15.4592 20 15.625V16.25H30V15.625C30 15.4592 30.0658 15.3003 30.1831 15.1831C30.3003 15.0658 30.4592 15 30.625 15C30.7908 15 30.9497 15.0658 31.0669 15.1831C31.1842 15.3003 31.25 15.4592 31.25 15.625V16.25H32.5C33.163 16.25 33.7989 16.5134 34.2678 16.9822C34.7366 17.4511 35 18.087 35 18.75V32.5C35 33.163 34.7366 33.7989 34.2678 34.2678C33.7989 34.7366 33.163 35 32.5 35H17.5C16.837 35 16.2011 34.7366 15.7322 34.2678C15.2634 33.7989 15 33.163 15 32.5V18.75C15 18.087 15.2634 17.4511 15.7322 16.9822C16.2011 16.5134 16.837 16.25 17.5 16.25H18.75V15.625C18.75 15.4592 18.8158 15.3003 18.9331 15.1831C19.0503 15.0658 19.2092 15 19.375 15V15ZM31.8175 18.75H18.1813C17.8063 18.75 17.5 19.03 17.5 19.375V20.625C17.5 20.97 17.805 21.25 18.1813 21.25H31.8188C32.1938 21.25 32.5 20.97 32.5 20.625V19.375C32.5 19.03 32.195 18.75 31.8175 18.75ZM26.67 30.9875C28.2425 30.9875 29.17 29.6538 29.17 27.3975C29.17 24.98 28.1938 24.0625 26.7288 24.0625C25.5713 24.0625 24.4825 24.9025 24.4825 26.3237C24.4825 27.7738 25.5125 28.5363 26.5775 28.5363C27.51 28.5363 28.115 28.0662 28.3063 27.5487H28.34C28.335 29.1937 27.7637 30.2537 26.7087 30.2537C25.8787 30.2537 25.4488 29.6913 25.3963 29.2288H24.5413C24.6 30.0288 25.2838 30.9862 26.67 30.9862V30.9875ZM23.0575 24.1938H22.2663C21.6992 24.4954 21.1511 24.8314 20.625 25.2V26.0687C21.0938 25.7475 21.8362 25.2937 22.1975 25.0975H22.2125V30.86H23.0563V24.1925L23.0575 24.1938Z" fill="white"/>
</svg>
