<svg width="50" height="50" viewBox="0 0 50 50" fill="none" xmlns="http://www.w3.org/2000/svg">
<path d="M41.6662 18.7501C40.0604 18.754 38.4755 18.3855 37.036 17.6736C35.5966 16.9618 34.3418 15.9259 33.3701 14.6474C32.3984 13.3689 31.7364 11.8825 31.4359 10.305C31.1354 8.72752 31.2048 7.10185 31.6385 5.55566H5.55512C4.81841 5.55566 4.11187 5.84832 3.59094 6.36926C3.07 6.89019 2.77734 7.59673 2.77734 8.33344V41.6668C2.77734 42.4035 3.07 43.11 3.59094 43.631C4.11187 44.1519 4.81841 44.4445 5.55512 44.4445H44.444C45.1807 44.4445 45.8873 44.1519 46.4082 43.631C46.9291 43.11 47.2218 42.4035 47.2218 41.6668V17.139C45.5604 18.1926 43.6335 18.7514 41.6662 18.7501ZM12.3885 11.1112C13.2125 11.1112 14.0181 11.3556 14.7033 11.8134C15.3885 12.2713 15.9226 12.922 16.238 13.6834C16.5533 14.4447 16.6358 15.2825 16.4751 16.0908C16.3143 16.899 15.9174 17.6414 15.3347 18.2242C14.752 18.8069 14.0096 19.2037 13.2013 19.3645C12.3931 19.5253 11.5553 19.4427 10.7939 19.1274C10.0326 18.812 9.38184 18.278 8.924 17.5928C8.46616 16.9076 8.22179 16.102 8.22179 15.2779C8.22179 14.1728 8.66077 13.113 9.44218 12.3316C10.2236 11.5502 11.2834 11.1112 12.3885 11.1112ZM8.3329 37.5001V31.8057L16.6662 23.3612C16.9265 23.1025 17.2785 22.9573 17.6454 22.9573C18.0123 22.9573 18.3643 23.1025 18.6246 23.3612L22.2218 26.8751L11.5551 37.5001H8.3329ZM41.6662 37.5001H15.4857L24.1384 28.8473L31.6385 21.3473C31.8987 21.0886 32.2507 20.9434 32.6176 20.9434C32.9845 20.9434 33.3366 21.0886 33.5968 21.3473L41.6662 29.4168V37.5001Z" fill="#9DA8C3"/>
<path d="M41.6671 15.2778C45.5024 15.2778 48.6115 12.1687 48.6115 8.33336C48.6115 4.49805 45.5024 1.38892 41.6671 1.38892C37.8318 1.38892 34.7227 4.49805 34.7227 8.33336C34.7227 12.1687 37.8318 15.2778 41.6671 15.2778Z" fill="#9DA8C3"/>
</svg>
