<svg width="300" height="216" viewBox="0 0 300 216" fill="none" xmlns="http://www.w3.org/2000/svg">
<g clip-path="url(#clip0_1352_10711)">
<path d="M300 215.835C284.542 213.571 269.676 211.619 255.401 209.979L261.046 200.846C259.143 200.283 250.782 205.49 250.782 205.49L258.192 178.936C248.621 179.858 243.752 206.984 243.752 206.984L233.061 197.756L238.236 208.099C194.548 203.59 156.817 201.818 125.081 201.614L129.912 193.796C128.009 193.234 119.648 198.441 119.648 198.441L127.058 171.886C117.488 172.808 112.618 199.935 112.618 199.935L101.927 190.706L107.408 201.662C80.8025 201.984 59.106 203.404 42.3593 205.06C47.2463 192.869 63.8434 181.33 63.8434 181.33C51.1691 184.428 44.5203 189.685 41.0457 194.599C40.7801 179.518 42.5668 151.568 55.8412 120.676C55.8412 120.676 29.6379 168.28 32.9759 200.331L33.3749 206.021C11.1659 208.581 0 211.299 0 211.299L300 215.835Z" fill="#3F3D56"/>
<path d="M159.521 8.64484V201.01C159.519 203.301 158.607 205.498 156.986 207.118C155.365 208.738 153.167 209.648 150.876 209.649H72.7816C71.6463 209.651 70.5217 209.429 69.4723 208.995C68.423 208.562 67.4695 207.926 66.6664 207.123C65.8633 206.321 65.2265 205.368 64.7924 204.318C64.3583 203.269 64.1355 202.145 64.1367 201.01V8.64484C64.1366 7.50956 64.3602 6.38537 64.7946 5.33649C65.229 4.2876 65.8658 3.33456 66.6685 2.5318C67.4713 1.72903 68.4243 1.09226 69.4732 0.657849C70.5221 0.22344 71.6463 -9.78192e-05 72.7816 4.05584e-07H84.4683V1.49868C84.468 3.38643 85.2176 5.19698 86.5522 6.53211C87.8868 7.86723 89.697 8.61758 91.5848 8.61814H131.304C132.824 8.62138 134.304 8.13429 135.524 7.22926C135.771 7.04979 136.005 6.85345 136.225 6.64166C136.92 5.9778 137.473 5.17963 137.85 4.29556C138.228 3.4115 138.422 2.45996 138.421 1.49868V4.05584e-07H150.876C152.011 -0.000347415 153.136 0.223021 154.185 0.657342C155.234 1.09166 156.187 1.72842 156.99 2.53124C157.792 3.33406 158.429 4.2872 158.863 5.33619C159.298 6.38519 159.521 7.50949 159.521 8.64484Z" fill="#3F3D56"/>
<path d="M85.8918 34.1284C87.0391 34.1284 87.9692 33.1983 87.9692 32.051C87.9692 30.9037 87.0391 29.9736 85.8918 29.9736C84.7445 29.9736 83.8145 30.9037 83.8145 32.051C83.8145 33.1983 84.7445 34.1284 85.8918 34.1284Z" fill="#F2F2F2"/>
<path d="M136.225 6.6416C136.005 6.85339 135.771 7.04973 135.524 7.2292C138.069 11.7065 141.516 15.6062 145.646 18.6811C149.777 21.756 154.502 23.939 159.521 25.0917V24.1657C154.638 23.0137 150.046 20.8616 146.036 17.8454C142.026 14.8291 138.686 11.0142 136.225 6.6416Z" fill="#FFCC1D"/>
<path d="M118.474 8.61816H117.501C120.957 17.3983 126.656 25.1178 134.03 31.0052C141.403 36.8926 150.193 40.7417 159.52 42.1678V41.2478C150.436 39.837 141.875 36.0869 134.678 30.366C127.482 24.6452 121.898 17.1504 118.474 8.61816Z" fill="#FFCC1D"/>
<path d="M100.543 8.61816H99.6055C107.449 35.8436 131.116 56.1099 159.52 59.4011V58.4959C131.609 55.2196 108.348 35.3391 100.543 8.61816Z" fill="#FFCC1D"/>
<path d="M79.067 47.4301H78.5262V46.8894H78.4209V47.4301H77.8799V47.5358H78.4209V48.0765H78.5262V47.5358H79.067V47.4301Z" fill="#F2F2F2"/>
<path d="M115.569 20.4243H115.028V19.8835H114.923V20.4243H114.382V20.5299H114.923V21.0706H115.028V20.5299H115.569V20.4243Z" fill="#F2F2F2"/>
<path d="M84.4087 68.7973H83.868V68.2566H83.7627V68.7973H83.2217V68.903H83.7627V69.4437H83.868V68.903H84.4087V68.7973Z" fill="#F2F2F2"/>
<path d="M109.337 53.0685H108.797V52.5278H108.691V53.0685H108.15V53.1742H108.691V53.7149H108.797V53.1742H109.337V53.0685Z" fill="#F2F2F2"/>
<path d="M144.949 62.862H144.408V62.3213H144.303V62.862H143.762V62.9676H144.303V63.5083H144.408V62.9676H144.949V62.862Z" fill="#F2F2F2"/>
<path d="M138.716 38.2831C139.372 38.2831 139.903 37.7516 139.903 37.096C139.903 36.4404 139.372 35.9089 138.716 35.9089C138.061 35.9089 137.529 36.4404 137.529 37.096C137.529 37.7516 138.061 38.2831 138.716 38.2831Z" fill="#FF6584"/>
<path d="M96.1903 64.9326L95.5166 65.0365C95.7273 66.3838 95.8935 67.7608 96.0152 69.123L96.6948 69.0636C96.5731 67.6837 96.4039 66.2948 96.1903 64.9326Z" fill="#E6E6E6"/>
<path d="M94.3472 56.8191L93.6943 57.0179C94.089 58.3237 94.4422 59.6621 94.7419 60.9946L95.4097 60.8433C95.104 59.4959 94.7449 58.1427 94.3472 56.8191Z" fill="#E6E6E6"/>
<path d="M91.4064 49.0378L90.7861 49.3227C91.3559 50.5662 91.8901 51.8423 92.3738 53.1184L93.0119 52.878C92.5222 51.5871 91.9851 50.2932 91.4064 49.0378Z" fill="#E6E6E6"/>
<path d="M87.4302 41.7434L86.8545 42.1084C87.5875 43.2599 88.2908 44.4529 88.9437 45.6489L89.5432 45.3224C88.8844 44.1116 88.1721 42.9067 87.4302 41.7434Z" fill="#E6E6E6"/>
<path d="M82.4861 35.0571L81.9668 35.4993C82.8512 36.538 83.7118 37.6242 84.5249 38.7222L85.071 38.3156C84.2519 37.2057 83.3824 36.1077 82.4861 35.0571Z" fill="#E6E6E6"/>
<path d="M76.6748 29.104L76.2207 29.6115C77.2416 30.5226 78.2417 31.4811 79.1943 32.4575L79.684 31.9797C78.7195 30.9914 77.7075 30.024 76.6748 29.104Z" fill="#E6E6E6"/>
<path d="M70.1104 23.9937L69.7275 24.5575C70.8612 25.3202 71.983 26.1334 73.0602 26.9732L73.4817 26.436C72.3896 25.5873 71.2559 24.7653 70.1104 23.9937Z" fill="#E6E6E6"/>
<path d="M64.1367 20.4443V21.2159C64.846 21.5869 65.5493 21.9757 66.2378 22.3733L66.5791 21.7828C65.7778 21.3198 64.9637 20.8736 64.1367 20.4443Z" fill="#E6E6E6"/>
<path d="M96.0361 129.036C96.1468 128.372 96.2481 127.694 96.3373 127.022L97.0137 127.112C96.9235 127.792 96.8211 128.477 96.7093 129.148L96.0361 129.036Z" fill="#E6E6E6"/>
<path d="M94.1348 137.042L94.7869 137.245C95.196 135.926 95.5663 134.575 95.8871 133.229L95.2226 133.072C94.9047 134.404 94.5409 135.738 94.1348 137.042Z" fill="#E6E6E6"/>
<path d="M91.1543 144.708L91.7734 144.998C92.3621 143.75 92.9131 142.463 93.4129 141.175L92.7762 140.926C92.2822 142.2 91.7371 143.473 91.1543 144.708Z" fill="#E6E6E6"/>
<path d="M87.1445 151.9L87.7168 152.271C88.4715 151.114 89.1956 149.914 89.8696 148.707L89.2745 148.374C88.6093 149.567 87.8911 150.753 87.1445 151.9Z" fill="#E6E6E6"/>
<path d="M82.1836 158.47L82.7008 158.918C83.6087 157.871 84.4888 156.782 85.3231 155.68L84.7766 155.271C83.9541 156.36 83.0827 157.436 82.1836 158.47Z" fill="#E6E6E6"/>
<path d="M76.374 164.3L76.8234 164.813C77.8669 163.903 78.8873 162.942 79.8624 161.966L79.3798 161.483C78.4157 162.449 77.4041 163.396 76.374 164.3Z" fill="#E6E6E6"/>
<path d="M69.8291 169.283L70.2061 169.854C71.3583 169.093 72.5026 168.282 73.6005 167.446L73.1879 166.901C72.1006 167.73 70.9703 168.532 69.8291 169.283Z" fill="#E6E6E6"/>
<path d="M66.6563 172.021C65.8313 172.487 64.9884 172.938 64.1367 173.366V172.6C64.8727 172.226 65.6028 171.832 66.318 171.431L66.6563 172.021Z" fill="#E6E6E6"/>
<path d="M96.2363 73.333L96.9185 73.3206C96.931 74.0094 96.9319 74.7019 96.9213 75.379L96.2392 75.3683C96.2496 74.6989 96.2487 74.0141 96.2363 73.333Z" fill="#E6E6E6"/>
<path d="M67.1338 89.5146H136.937C142.131 89.5146 147.113 91.5782 150.786 95.2514C154.46 98.9247 156.523 103.907 156.523 109.101V111.694H86.7204C81.5257 111.694 76.5438 109.63 72.8706 105.957C69.1974 102.284 67.1338 97.302 67.1338 92.1073V89.5146Z" fill="white"/>
<path d="M113.459 209.376C113.391 209.265 111.785 206.583 111.228 201.016C110.717 195.907 111.046 187.297 115.511 175.286C123.971 152.533 113.562 134.174 113.455 133.991L113.969 133.693C113.996 133.74 116.682 138.42 118.269 145.874C120.365 155.755 119.602 166.03 116.068 175.493C107.623 198.208 113.901 208.961 113.965 209.067L113.459 209.376Z" fill="#F2F2F2"/>
<path d="M110.151 132.655C112.282 132.655 114.009 130.928 114.009 128.797C114.009 126.666 112.282 124.939 110.151 124.939C108.02 124.939 106.293 126.666 106.293 128.797C106.293 130.928 108.02 132.655 110.151 132.655Z" fill="#FFCC1D"/>
<path d="M122.319 146.9C124.45 146.9 126.177 145.173 126.177 143.042C126.177 140.911 124.45 139.184 122.319 139.184C120.188 139.184 118.461 140.911 118.461 143.042C118.461 145.173 120.188 146.9 122.319 146.9Z" fill="#F2F2F2"/>
<path d="M114.009 156.397C116.14 156.397 117.867 154.669 117.867 152.539C117.867 150.408 116.14 148.681 114.009 148.681C111.879 148.681 110.151 150.408 110.151 152.539C110.151 154.669 111.879 156.397 114.009 156.397Z" fill="#FFCC1D"/>
<path d="M124.099 164.409C126.23 164.409 127.957 162.682 127.957 160.551C127.957 158.421 126.23 156.693 124.099 156.693C121.968 156.693 120.241 158.421 120.241 160.551C120.241 162.682 121.968 164.409 124.099 164.409Z" fill="#FFCC1D"/>
<path d="M111.042 176.874C113.172 176.874 114.9 175.146 114.9 173.016C114.9 170.885 113.172 169.158 111.042 169.158C108.911 169.158 107.184 170.885 107.184 173.016C107.184 175.146 108.911 176.874 111.042 176.874Z" fill="#F2F2F2"/>
<path d="M115.79 209.518C115.79 209.518 111.932 200.021 123.506 192.899L115.79 209.518Z" fill="#F2F2F2"/>
<path d="M111.045 209.346C111.045 209.346 109.289 199.247 95.6992 199.334L111.045 209.346Z" fill="#F2F2F2"/>
<path opacity="0.2" d="M95.6858 124.346C108.798 124.346 119.427 113.716 119.427 100.604C119.427 87.4922 108.798 76.8628 95.6858 76.8628C82.5737 76.8628 71.9443 87.4922 71.9443 100.604C71.9443 113.716 82.5737 124.346 95.6858 124.346Z" fill="#FFCC1D"/>
<path opacity="0.2" d="M95.6851 117.324C104.919 117.324 112.404 109.838 112.404 100.604C112.404 91.3705 104.919 83.885 95.6851 83.885C86.4513 83.885 78.9658 91.3705 78.9658 100.604C78.9658 109.838 86.4513 117.324 95.6851 117.324Z" fill="#FFCC1D"/>
<path d="M95.6861 111.639C101.78 111.639 106.721 106.699 106.721 100.604C106.721 94.51 101.78 89.5696 95.6861 89.5696C89.5918 89.5696 84.6514 94.51 84.6514 100.604C84.6514 106.699 89.5918 111.639 95.6861 111.639Z" fill="#FFCC1D"/>
<path d="M97.6923 98.2242C97.6924 97.8856 97.6068 97.5525 97.4435 97.2559C97.2802 96.9593 97.0445 96.7088 96.7583 96.5279C96.4721 96.3469 96.1448 96.2413 95.8068 96.2209C95.4688 96.2005 95.1312 96.266 94.8253 96.4113C94.5195 96.5565 94.2553 96.7768 94.0576 97.0517C93.8598 97.3265 93.7348 97.6469 93.6942 97.983C93.6536 98.3192 93.6987 98.6601 93.8254 98.9742C93.952 99.2882 94.1561 99.565 94.4186 99.7789L93.6797 104.951H97.6923L96.9534 99.7789C97.1845 99.591 97.3707 99.354 97.4985 99.085C97.6264 98.816 97.6926 98.522 97.6923 98.2242Z" fill="white"/>
<path d="M206.582 15.8178C206.582 15.8178 199.963 9.88393 191.062 21.0669C182.162 32.2499 168.24 37.7273 165.045 42.0636C165.045 42.0636 178.282 36.5862 182.846 34.3039C187.411 32.0217 187.183 32.4781 187.183 32.4781C187.183 32.4781 181.021 36.8144 179.88 41.1507C178.738 45.4869 179.651 49.1385 177.597 53.4748C175.543 57.811 216.852 56.4417 216.852 56.4417C216.852 56.4417 220.96 49.3668 219.819 42.0636C218.678 34.7604 219.362 16.7307 206.582 15.8178Z" fill="#2F2E41"/>
<path d="M194.064 34.4851C194.064 34.4851 195.504 44.5594 189.336 46.821C183.168 49.0826 185.429 52.1665 185.429 52.1665L194.681 56.6897L204.55 53.6057L207.839 48.6714C207.839 48.6714 202.494 47.4378 203.933 43.737C205.372 40.0362 205.783 38.8027 205.783 38.8027L194.064 34.4851Z" fill="#FFB9B9"/>
<path opacity="0.1" d="M194.064 34.4851C194.064 34.4851 195.504 44.5594 189.336 46.821C183.168 49.0826 185.429 52.1665 185.429 52.1665L194.681 56.6897L204.55 53.6057L207.839 48.6714C207.839 48.6714 202.494 47.4378 203.933 43.737C205.372 40.0362 205.783 38.8027 205.783 38.8027L194.064 34.4851Z" fill="black"/>
<path d="M219.97 63.2688C219.97 63.2688 218.53 82.1838 218.942 83.0062C219.353 83.8286 218.942 112.407 218.942 112.407C218.942 112.407 221.82 127.827 218.119 128.649C214.418 129.471 215.241 111.379 215.241 111.379L211.54 87.5294L211.951 63.8856L219.97 63.2688Z" fill="#FFB9B9"/>
<path opacity="0.1" d="M219.97 63.2688C219.97 63.2688 218.53 82.1838 218.942 83.0062C219.353 83.8286 218.942 112.407 218.942 112.407C218.942 112.407 221.82 127.827 218.119 128.649C214.418 129.471 215.241 111.379 215.241 111.379L211.54 87.5294L211.951 63.8856L219.97 63.2688Z" fill="black"/>
<path d="M179.878 120.219C179.878 120.219 173.093 145.919 173.299 158.461C173.504 171.002 176.177 188.478 176.177 188.478C176.177 188.478 176.588 196.085 175.971 196.908C175.355 197.73 179.055 201.225 179.055 201.225L182.962 198.964L184.401 197.319V195.88C184.401 195.88 182.139 188.889 183.99 183.338C185.84 177.787 186.868 163.806 185.018 159.489L197.765 121.659L179.878 120.219Z" fill="#FFB9B9"/>
<path d="M179.466 197.935C179.466 197.935 176.999 194.851 175.354 195.879C173.71 196.907 171.037 203.898 171.037 203.898C171.037 203.898 161.785 212.738 168.364 213.15C174.943 213.561 177.822 211.299 178.644 209.654C179.466 208.01 187.074 203.692 187.074 203.692C187.074 203.692 186.251 195.879 185.018 195.674C183.784 195.468 181.934 198.758 181.934 198.758L179.466 197.935Z" fill="#2F2E41"/>
<path d="M202.288 121.864V147.358C202.311 150.452 202.517 153.541 202.904 156.61C203.521 161.133 199.409 194.852 199.409 194.852L199.82 200.814L204.96 200.403L205.577 195.263L212.979 172.647C212.979 172.647 215.446 158.872 214.212 153.732C212.979 148.592 220.586 115.696 220.586 115.696L202.288 121.864Z" fill="#FFB9B9"/>
<path d="M198.176 199.375L199.699 199.044C199.699 199.044 200.849 196.496 202.288 197.113C203.301 197.58 204.26 198.155 205.15 198.828L205.783 199.992C205.783 199.992 207.222 203.075 209.072 205.131C210.923 207.187 212.979 211.711 209.895 212.122C206.811 212.533 202.699 212.739 201.465 211.711C200.232 210.683 201.054 209.038 199.821 208.627C198.587 208.215 197.559 206.982 197.765 206.571C197.97 206.159 198.176 199.375 198.176 199.375Z" fill="#2F2E41"/>
<path d="M202.288 41.5666C207.334 41.5666 211.425 37.4756 211.425 32.429C211.425 27.3825 207.334 23.2915 202.288 23.2915C197.241 23.2915 193.15 27.3825 193.15 32.429C193.15 37.4756 197.241 41.5666 202.288 41.5666Z" fill="#FFB9B9"/>
<path d="M185.018 48.4657L187.733 47.5176C187.733 47.5176 186.662 49.2881 192.419 50.3161C198.176 51.3441 204.138 51.708 206.811 48.3393C206.811 48.3393 207.839 47.8489 209.278 49.2881C210.717 50.7273 211.54 50.3161 211.54 50.3161L210.512 55.6617L208.456 65.5304L205.783 72.9319L198.176 71.2871L189.952 65.3247L186.868 57.3064V49.9049L185.018 48.4657Z" fill="#FFCC1D"/>
<path d="M210.1 51.3443L212.156 49.9051C212.156 49.9051 219.146 51.1387 219.558 54.4282L214.212 64.7081C215.302 67.5685 215.229 70.7422 214.007 73.5488C211.951 78.2776 212.156 79.3056 212.156 79.3056L210.717 85.4735L184.606 87.5295C184.606 87.5295 183.578 85.0623 183.167 84.6511C182.756 84.24 182.756 82.8008 183.167 82.8008C183.578 82.8008 183.167 82.184 182.756 81.5672C182.344 80.9504 182.139 80.7448 182.756 79.9224C183.372 79.1 181.728 71.6985 181.728 71.6985V63.6801L174.737 54.4282C174.737 54.4282 177.204 50.7275 178.438 50.3163C179.672 49.9051 185.54 48.2834 185.54 48.2834L186.868 50.2386L188.718 65.1193L191.391 74.1656L202.644 72.2535L207.016 64.9137L209.895 56.2786L210.1 51.3443Z" fill="#FFCC1D"/>
<path d="M217.913 53.1943L219.558 54.4279C219.558 54.4279 220.997 65.9414 220.586 66.7638C220.175 67.5862 212.979 68.4086 212.773 67.9974C212.568 67.5862 217.913 53.1943 217.913 53.1943Z" fill="#FFCC1D"/>
<path d="M183.989 47.4376L186.045 61.0071C186.045 61.0071 184.195 81.1557 184.606 85.2677L185.017 86.5013C185.017 86.5013 184.195 86.0901 183.989 86.9124C183.783 87.7348 183.989 90.4076 183.989 90.4076C183.989 90.4076 182.755 91.6412 182.344 98.4259C181.933 105.211 176.999 121.453 178.849 122.07C180.7 122.687 191.802 125.77 197.764 125.154C203.726 124.537 225.109 117.341 224.903 115.491C224.697 113.64 214.418 87.5293 214.418 87.5293C214.418 87.5293 212.567 84.4453 212.567 84.0341C212.567 83.6229 215.034 81.9781 214.418 80.3333C213.801 78.6885 210.511 61.4183 210.511 61.4183L212.773 49.0824L209.689 48.26L207.427 60.1847C207.427 60.1847 198.587 64.5023 189.335 60.5959L187.279 46.6152L183.989 47.4376Z" fill="#2F2E41"/>
<path d="M193.881 25.8712C193.881 25.8712 209.095 36.3567 213.207 31.628C217.319 26.8992 206.011 22.7873 206.011 22.7873L196.554 21.7593L193.881 25.8712Z" fill="#2F2E41"/>
<path d="M170.242 137.416C171.808 138.582 173.746 139.136 175.691 138.976C177.637 138.815 179.457 137.951 180.811 136.544C182.165 135.137 182.959 133.285 183.045 131.335C183.131 129.385 182.502 127.47 181.278 125.95C180.053 124.43 178.316 123.408 176.392 123.077C174.468 122.746 172.489 123.128 170.827 124.152C169.164 125.175 167.932 126.77 167.361 128.637C166.791 130.504 166.92 132.515 167.726 134.293L146.743 151.764L143.949 148.448L142.693 149.288L141.296 147.63L142.444 146.663L141.047 145.005L139.262 146.509L140.121 147.529L138.208 149.141L137.349 148.121L134.543 150.485L135.832 152.016L136.853 151.156L138.25 152.814L136.974 153.888L139.553 156.949L136.492 159.528L139.609 163.227L170.242 137.416ZM175.482 125.696C176.527 125.785 177.523 126.183 178.343 126.838C179.163 127.493 179.77 128.377 180.088 129.377C180.405 130.378 180.419 131.45 180.127 132.458C179.836 133.466 179.252 134.365 178.449 135.042C177.646 135.718 176.661 136.141 175.618 136.257C174.575 136.374 173.521 136.178 172.589 135.695C171.657 135.213 170.889 134.464 170.382 133.545C169.876 132.626 169.653 131.577 169.742 130.532C169.862 129.129 170.534 127.832 171.61 126.925C172.687 126.018 174.079 125.576 175.482 125.696V125.696Z" fill="#FFCC1D"/>
<path d="M173.298 65.7358C173.298 65.7358 174.737 84.6509 174.326 85.4732C173.915 86.2956 174.326 114.874 174.326 114.874C174.326 114.874 171.448 130.294 175.149 131.116C178.849 131.938 178.027 113.846 178.027 113.846L181.728 89.9964L181.317 66.3526L173.298 65.7358Z" fill="#FFB9B9"/>
<path d="M176.382 53.8113L174.737 54.4281C174.737 54.4281 171.653 67.3808 172.475 67.3808C173.298 67.3808 183.166 68.6143 183.166 68.2031C183.166 67.792 181.316 57.7176 181.316 57.7176L176.382 53.8113Z" fill="#FFCC1D"/>
</g>
<defs>
<clipPath id="clip0_1352_10711">
<rect width="300" height="215.834" fill="white"/>
</clipPath>
</defs>
</svg>
